#N canvas 173 359 450 300 12;
#X obj 83 42 inlet;
#X obj 83 116 spigot 1;
#X obj 83 224 outlet;
#X msg 158 88 0;
#X msg 208 88 1;
#X obj 208 51 delay \$1;
#X text 188 189 \$1: debounce time in ms;
#X obj 83 170 t b b;
#X connect 0 0 1 0;
#X connect 1 0 7 0;
#X connect 3 0 1 1;
#X connect 4 0 1 1;
#X connect 5 0 4 0;
#X connect 7 0 2 0;
#X connect 7 1 3 0;
#X connect 7 1 5 0;
