#N canvas 256 25 1245 966 12;
#X declare -lib cyclone;
#X text 603 71 This Pure Data patch takes OSC data from touch OSC and enables a user's phone to modulate guitar controls in a guitar amp sim plugin.;
#X obj 889 769 vstplugin~;
#X obj 961 801 print;
#N canvas 877 205 770 515 testSound 0;
#X msg 69 160 open ../doc/sound/voice.wav \, start;
#X obj 66 225 readsf~;
#X obj 66 310 send~ testSig;
#X text 211 232 change to one for signal;
#X obj 49 16 inlet;
#X obj 52 77 select 1 0;
#X connect 0 0 1 0;
#X connect 1 0 2 0;
#X connect 4 0 5 0;
#X connect 5 0 0 0;
#X restore 610 225 pd testSound;
#X obj 974 620 receive vstPlugin;
#N canvas 79 121 717 497 pluginLoadAndVis 0;
#X msg 51 157 print;
#X msg 48 131 close;
#X msg 33 104 open /Library/Audio/Plug-Ins/VST3/Archetype\ Rabea.vst3;
#X obj 34 296 send vstPlugin;
#X obj 35 19 inlet;
#X obj 44 58 select 1 0;
#X msg 125 139 param_list;
#X msg 197 245 vis \$1;
#X obj 197 217 tgl 19 0 empty empty empty 0 -10 0 12 #fcfcfc #000000 #000000 0 1;
#X msg 150 188 param_dump;
#X obj 175 35 s param-spigot;
#X connect 0 0 3 0;
#X connect 1 0 3 0;
#X connect 2 0 3 0;
#X connect 4 0 5 0;
#X connect 4 0 10 0;
#X connect 5 0 2 0;
#X connect 5 1 1 0;
#X connect 6 0 3 0;
#X connect 7 0 3 0;
#X connect 8 0 7 0;
#X connect 9 0 3 0;
#X restore 453 548 pd pluginLoadAndVis;
#X obj 453 519 tgl 19 0 empty empty empty 0 -10 0 12 #fcfcfc #000000 #000000 0 1;
#X text 486 520 Check to load Amp Simulator;
#X text 599 151 1 Select input (either test sound or guitar input;
#X obj 610 194 tgl 19 0 empty empty empty 0 -10 0 12 #fcfcfc #000000 #000000 0 1;
#X text 605 282 2 Load amp simulator;
#X obj 305 847 send params;
#X obj 996 708 receive params;
#X msg 312 764 param_set Aeons_Reverb_Dry/Wet \$1;
#X msg 558 763 param_set Preset_Previous \$1;
#X msg 562 813 param_set Preset_Next \$1;
#X obj 559 734 tgl 19 0 empty empty empty 0 -10 0 12 #fcfcfc #000000 #000000 0 1;
#X obj 561 786 tgl 19 0 empty empty empty 0 -10 0 12 #fcfcfc #000000 #000000 0 1;
#X text 84 653 Parameter Mapping Section;
#X text 999 665 Output Section;
#N canvas 319 177 1349 696 oscRouting 0;
#X obj 21 48 oscparse;
#X obj 21 92 list trim;
#N canvas 92 117 993 356 equation-refs 0;
#X text 152 53 pitch = 180 * atan (accelerationX/sqrt(accelerationY*accelerationY + accelerationZ*accelerationZ))/M_PI \;;
#X text 532 53 roll = 180 * atan (accelerationY/sqrt(accelerationX*accelerationX + accelerationZ*accelerationZ))/M_PI \;;
#X text 112 178 yaw = 180 * atan (accelerationZ / sqrt(accelerationX * accelerationX + accelerationZ * accelerationZ)) / 3.14159 \;, f 117;
#X text 311 243 these didn't seem to work \, but maybe we can revisit them.;
#X restore 1174 38 pd equation-refs;
#X obj 21 18 netreceive -u -b 57130;
#X obj 702 137 route x y z;
#X floatatom 699 177 5 0 0 0 - - - 0;
#X floatatom 742 179 5 0 0 0 - - - 0;
#X floatatom 789 188 5 0 0 0 - - - 0;
#X text 814 165 gyroscope data;
#X text 1076 420 only passes thru if val changes;
#X text 110 74 accelerometer singleXYpad gyroscope multiXYpad;
#X text 1086 354 Single XY pad;
#X text 1144 594 Multi-XY pad;
#N canvas 502 119 1005 872 touch-data 0;
#X obj 91 13 inlet;
#X listbox 92 340 20 0 0 0 - - - 0;
#X listbox 207 305 20 0 0 0 - - - 0;
#X obj 76 58 unpack s f f;
#X obj 50 113 list fromsymbol;
#X obj 63 213 route 49 50 51 52 53;
#X obj 50 137 pack f f f;
#X listbox 279 263 20 0 0 0 - - - 0;
#X obj 49 420 unpack f f;
#X floatatom 49 485 5 0 0 0 - - - 0;
#X floatatom 230 617 5 0 0 0 - - - 0;
#X obj 54 711 bng 15 250 50 0 empty empty left 17 7 0 10 #fcfcfc #000000 #000000;
#X obj 154 711 bng 15 250 50 0 empty empty right 17 7 0 10 #fcfcfc #000000 #000000;
#X obj 104 751 bng 15 250 50 0 empty empty down 17 7 0 10 #fcfcfc #000000 #000000;
#X obj 104 671 bng 15 250 50 0 empty empty up 17 7 0 10 #fcfcfc #000000 #000000;
#X text 182 412 when iPhone is in normal upright position \, for the y coordinate \, 0 is the top of the screen \, 1 is the bottom of the screen;
#X text 731 349 0.5;
#X text 731 259 0.3;
#X obj 185 515 t f f;
#X obj 188 571 -;
#X text 246 538 delta/derivative;
#X floatatom 296 628 5 0 0 0 - - - 0;
#X floatatom 233 564 5 0 0 0 - - - 0;
#X obj 436 712 select 1 0;
#X obj 213 722 select 1;
#X obj 463 512 timer;
#X obj 439 476 t b b;
#X floatatom 463 536 5 0 0 0 - - - 0;
#X obj 463 559 print;
#X text 538 507 could measure the time between y values showing up. if you're actively in contact \, the time between values will be very small. a new swipe will have a very large time (2 sec or more?) so that can be your indicator to do a special case for initializing the delta calculation.;
#X obj 443 69 unpack f f;
#X obj 443 93 -;
#X obj 523 93 -;
#X obj 595 34 unpack f f;
#X obj 441 119 pow 2;
#X obj 521 119 pow 2;
#X obj 441 143 +;
#X obj 441 167 sqrt;
#X floatatom 441 191 5 0 0 0 - - - 0;
#X obj 227 759 debounce 100;
#X obj 436 746 oneBang;
#X obj 63 799 outlet;
#X obj 223 806 tgl 19 0 empty empty empty 0 -10 0 12 #fcfcfc #000000 #000000 0 1;
#X obj 213 681 < -0.15;
#N canvas 92 157 1297 833 williamTouchMethod 0;
#X obj 149 109 route pdparty;
#X obj 149 133 route touch;
#X obj 149 157 route down up xy;
#X obj 389 245 unpack f f;
#X floatatom 389 269 5 0 0 0 x - - 0;
#X floatatom 469 269 5 0 0 1 y - - 0;
#X obj 882 82 cnv 19 50 100 empty empty empty 20 12 0 12 #e0e0e0 #404040 0;
#X text 946 78 top;
#X text 946 168 bottom;
#X text 806 198 both x and y axes give normalized 0 - 1 coordinates \, where the y value is 0 at the top and 1 at the bottom., f 31;
#X obj 473 308 t f f;
#X obj 483 342 -;
#X obj 483 366 t f b;
#X obj 483 450 array set yDelta;
#X obj 580 392 f;
#X obj 620 386 + 1;
#X obj 688 375 array define yDelta 30;
#X obj 620 410 mod 30;
#X msg 598 358 0;
#X obj 598 294 bng 19 250 50 0 empty empty empty 0 -10 0 12 #fcfcfc #000000 #000000;
#X msg 688 347 const 0;
#X obj 743 429 bng 19 250 50 0 empty empty empty 0 -10 0 12 #fcfcfc #000000 #000000;
#X obj 781 457 array min yDelta;
#X floatatom 781 481 5 0 0 0 - - - 0;
#X floatatom 781 541 5 0 0 0 - - - 0;
#X obj 781 517 array max yDelta;
#X text 769 25 operates under the assumption that the iPhone/iPad is oriented like this:, f 38;
#X obj 149 245 unpack f f;
#X text 475 647 swipe down: positive deltas. strong swipe gives a maximum value of 0.223 \, weak swipe gives a maximum value of 0.131.;
#X text 475 597 swipe up: negative deltas. strong swipe gives a minimum value of -0.25 \, weak swipe gives a minimum value of -0.11;
#X text 129 298 on a "down" touch event for finger 0 \, store the initial y coordinate in the cold inlet of our [- ] for getting coordinate deltas., f 22;
#X text 329 348 on subsequent "xy" touch events \, we subtract the current y coordinate from the previoius one to get the delta, f 19;
#X text 475 487 this plotting is just for studying swipe events in order to see how they behave and come up with good thresholds for detecting swipes based on delta., f 30;
#X text 770 428 click to get the max/min values after a swipe;
#X text 855 374 << click to open the plot;
#X text 627 292 << clear the plot for a new swipe test;
#X obj 186 491 t f f;
#X obj 186 515 > 0;
#X obj 326 515 abs;
#X obj 186 539 select 0 1;
#X obj 186 573 spigot;
#X obj 186 647 bng 19 250 50 0 empty empty empty 0 30 0 12 #fcfcfc #000000 #000000;
#X obj 296 573 spigot;
#X obj 296 647 bng 19 250 50 0 empty empty empty 0 30 0 12 #fcfcfc #000000 #000000;
#X floatatom 374 498 5 0 0 2 thresh - - 0;
#X obj 186 691 print swipeUp;
#X obj 296 691 print swipeDown;
#X obj 269 245 t b;
#N canvas 324 349 402 305 once 0;
#X obj 64 28 inlet;
#X obj 64 122 spigot 1;
#X obj 64 146 t b b;
#X obj 64 230 outlet;
#X obj 194 28 inlet;
#X text 168 127 this should really be an abstractions and not a sub-patch since we use it twice (and possibly 4 times when we do left/right swipes), f 24;
#X msg 144 84 0;
#X msg 194 84 1;
#X connect 0 0 1 0;
#X connect 1 0 2 0;
#X connect 2 0 3 0;
#X connect 2 1 6 0;
#X connect 4 0 7 0;
#X connect 6 0 1 1;
#X connect 7 0 1 1;
#X restore 186 613 pd once;
#N canvas 324 349 402 305 once 0;
#X obj 64 28 inlet;
#X obj 64 122 spigot 1;
#X obj 64 146 t b b;
#X obj 64 230 outlet;
#X obj 194 28 inlet;
#X text 168 127 this should really be an abstractions and not a sub-patch since we use it twice (and possibly 4 times when we do left/right swipes), f 24;
#X msg 144 84 0;
#X msg 194 84 1;
#X connect 0 0 1 0;
#X connect 1 0 2 0;
#X connect 2 0 3 0;
#X connect 2 1 6 0;
#X connect 4 0 7 0;
#X connect 6 0 1 1;
#X connect 7 0 1 1;
#X restore 296 613 pd once;
#X obj 326 539 > 0.05;
#X text 319 126 on an "up" touch event for finger 0 \, send a bang to clear the [pd once] objects below., f 25;
#X text 500 206 we're only dealing with finger 0 \, but we could get data on fingers 1 \, 2 \, 3 \, etc. if we want., f 34;
#X text 475 697 a general threshold that seems to work for me is 0.05 \, even for quite weak swipes.;
#X text 14 555 since there may be multiple frames with deltas beyond our thresh \, we use this [pd once] sub-patch to filter out/debounce any subsequent bangs once we get the initial bang from the swipe detection., f 22;
#X obj 147 35 inlet;
#X text 194 36 pure data touch values;
#X obj 149 221 route 0;
#X obj 269 221 route 0;
#X obj 389 221 route 0;
#X connect 0 0 1 0;
#X connect 1 0 2 0;
#X connect 2 0 57 0;
#X connect 2 1 58 0;
#X connect 2 2 59 0;
#X connect 3 0 4 0;
#X connect 3 1 5 0;
#X connect 3 1 10 0;
#X connect 10 0 11 1;
#X connect 10 1 11 0;
#X connect 11 0 12 0;
#X connect 11 0 36 0;
#X connect 12 0 13 0;
#X connect 12 1 14 0;
#X connect 14 0 15 0;
#X connect 14 0 13 1;
#X connect 15 0 17 0;
#X connect 17 0 14 1;
#X connect 18 0 14 1;
#X connect 19 0 20 0;
#X connect 19 0 18 0;
#X connect 20 0 16 0;
#X connect 21 0 22 0;
#X connect 21 0 25 0;
#X connect 22 0 23 0;
#X connect 25 0 24 0;
#X connect 27 1 11 1;
#X connect 36 0 37 0;
#X connect 36 1 38 0;
#X connect 37 0 39 0;
#X connect 38 0 50 0;
#X connect 39 0 40 0;
#X connect 39 1 42 0;
#X connect 40 0 48 0;
#X connect 41 0 45 0;
#X connect 42 0 49 0;
#X connect 43 0 46 0;
#X connect 44 0 50 1;
#X connect 47 0 49 1;
#X connect 47 0 48 1;
#X connect 48 0 41 0;
#X connect 49 0 43 0;
#X connect 50 0 42 1;
#X connect 50 0 40 1;
#X connect 57 0 27 0;
#X connect 58 0 47 0;
#X connect 59 0 3 0;
#X restore 478 261 pd williamTouchMethod;
#X connect 0 0 3 0;
#X connect 0 0 44 0;
#X connect 3 0 4 0;
#X connect 3 1 6 1;
#X connect 3 2 6 2;
#X connect 4 0 6 0;
#X connect 5 0 1 0;
#X connect 5 0 8 0;
#X connect 5 0 30 0;
#X connect 5 1 2 0;
#X connect 5 1 33 0;
#X connect 5 2 7 0;
#X connect 6 0 5 0;
#X connect 8 0 9 0;
#X connect 8 1 18 0;
#X connect 8 1 26 0;
#X connect 18 0 19 1;
#X connect 18 0 22 0;
#X connect 18 1 19 0;
#X connect 19 0 10 0;
#X connect 19 0 43 0;
#X connect 21 0 43 1;
#X connect 23 0 40 0;
#X connect 23 1 40 1;
#X connect 24 0 39 0;
#X connect 25 0 27 0;
#X connect 26 0 25 0;
#X connect 26 1 25 1;
#X connect 30 0 31 0;
#X connect 30 1 32 0;
#X connect 31 0 34 0;
#X connect 32 0 35 0;
#X connect 33 0 31 1;
#X connect 33 1 32 1;
#X connect 34 0 36 0;
#X connect 35 0 36 1;
#X connect 36 0 37 0;
#X connect 37 0 38 0;
#X connect 39 0 42 0;
#X connect 42 0 41 0;
#X connect 43 0 23 0;
#X connect 43 0 24 0;
#X restore 378 138 pd touch-data;
#N canvas 585 204 870 656 valueSmoothing 0;
#X obj 515 -133 loadbang;
#X obj 135 111 inlet;
#X obj 208 395 vsl 19 162 0 1 0 0 empty empty empty 0 -9 0 12 #fcfcfc #000000 #000000 0 1;
#X msg 373 144 \$1 90;
#X obj 373 168 line;
#X floatatom 373 192 5 0 0 0 - - - 0;
#X obj 371 252 change;
#X floatatom 371 217 5 0 0 0 - - - 0;
#X obj 371 279 bng 15 250 50 0 empty empty empty 17 7 0 10 #fcfcfc #000000 #000000;
#X msg 292 278 set \$1, f 7;
#X msg 292 340 0.412092;
#X floatatom 292 371 5 0 0 0 - - - 0;
#X obj 371 303 del 1;
#X obj 243 395 vsl 19 162 0 1 0 0 empty empty empty 0 -9 0 12 #fcfcfc #000000 #000000 0 1;
#X text 137 394 Original;
#X text 268 394 Smoothed;
#X obj 240 575 outlet;
#X text 176 47 This is a little abstraction that does some linear value smoothing to an input signal;
#X connect 1 0 2 0;
#X connect 1 0 3 0;
#X connect 3 0 4 0;
#X connect 4 0 5 0;
#X connect 5 0 7 0;
#X connect 6 0 8 0;
#X connect 7 0 6 0;
#X connect 7 0 9 0;
#X connect 8 0 10 0;
#X connect 8 0 12 0;
#X connect 9 0 10 0;
#X connect 10 0 11 0;
#X connect 11 0 13 0;
#X connect 12 0 10 0;
#X connect 13 0 16 0;
#X restore 22 226 pd valueSmoothing;
#X floatatom 22 262 5 0 0 0 - - - 0;
#X floatatom 22 200 5 0 0 0 - - - 0;
#X obj 21 163 route x y z;
#X floatatom 173 272 5 0 0 0 - - - 0;
#X floatatom 173 222 5 0 0 0 - - - 0;
#X floatatom 316 273 5 0 0 0 - - - 0;
#X floatatom 316 223 5 0 0 0 - - - 0;
#N canvas 585 204 870 656 valueSmoothing 0;
#X obj 515 -133 loadbang;
#X obj 135 111 inlet;
#X obj 208 395 vsl 19 162 0 1 0 0 empty empty empty 0 -9 0 12 #fcfcfc #000000 #000000 0 1;
#X msg 373 144 \$1 90;
#X obj 373 168 line;
#X floatatom 373 192 5 0 0 0 - - - 0;
#X obj 371 252 change;
#X floatatom 371 217 5 0 0 0 - - - 0;
#X obj 371 279 bng 15 250 50 0 empty empty empty 17 7 0 10 #fcfcfc #000000 #000000;
#X msg 292 278 set \$1, f 7;
#X msg 292 340 0.984608;
#X floatatom 292 371 5 0 0 0 - - - 0;
#X obj 371 303 del 1;
#X obj 243 395 vsl 19 162 0 1 0 0 empty empty empty 0 -9 0 12 #fcfcfc #000000 #000000 0 1;
#X text 137 394 Original;
#X text 268 394 Smoothed;
#X obj 240 575 outlet;
#X text 176 47 This is a little abstraction that does some linear value smoothing to an input signal;
#X connect 1 0 2 0;
#X connect 1 0 3 0;
#X connect 3 0 4 0;
#X connect 4 0 5 0;
#X connect 5 0 7 0;
#X connect 6 0 8 0;
#X connect 7 0 6 0;
#X connect 7 0 9 0;
#X connect 8 0 10 0;
#X connect 8 0 12 0;
#X connect 9 0 10 0;
#X connect 10 0 11 0;
#X connect 11 0 13 0;
#X connect 12 0 10 0;
#X connect 13 0 16 0;
#X restore 170 246 pd valueSmoothing;
#N canvas 585 204 870 656 valueSmoothing 0;
#X obj 515 -133 loadbang;
#X obj 135 111 inlet;
#X obj 208 395 vsl 19 162 0 1 0 0 empty empty empty 0 -9 0 12 #fcfcfc #000000 #000000 0 1;
#X msg 373 144 \$1 90;
#X obj 373 168 line;
#X floatatom 373 192 5 0 0 0 - - - 0;
#X obj 371 252 change;
#X floatatom 371 217 5 0 0 0 - - - 0;
#X obj 371 279 bng 15 250 50 0 empty empty empty 17 7 0 10 #fcfcfc #000000 #000000;
#X msg 292 278 set \$1, f 7;
#X msg 292 340 0.593006;
#X floatatom 292 371 5 0 0 0 - - - 0;
#X obj 371 303 del 1;
#X obj 243 395 vsl 19 162 0 1 0 0 empty empty empty 0 -9 0 12 #fcfcfc #000000 #000000 0 1;
#X text 137 394 Original;
#X text 268 394 Smoothed;
#X obj 240 575 outlet;
#X text 176 47 This is a little abstraction that does some linear value smoothing to an input signal;
#X connect 1 0 2 0;
#X connect 1 0 3 0;
#X connect 3 0 4 0;
#X connect 4 0 5 0;
#X connect 5 0 7 0;
#X connect 6 0 8 0;
#X connect 7 0 6 0;
#X connect 7 0 9 0;
#X connect 8 0 10 0;
#X connect 8 0 12 0;
#X connect 9 0 10 0;
#X connect 10 0 11 0;
#X connect 11 0 13 0;
#X connect 12 0 10 0;
#X connect 13 0 16 0;
#X restore 318 247 pd valueSmoothing;
#X obj 28 474 outlet;
#X obj 174 479 outlet;
#X obj 314 481 outlet;
#X obj 512 138 route button1;
#X floatatom 511 178 5 0 0 0 - - - 0;
#X obj 473 485 outlet;
#X text 21 502 x value;
#X text 162 504 y value;
#X text 308 506 z value;
#X text 433 509 Button status;
#X obj 592 484 outlet;
#X text 561 516 up swipe status;
#X floatatom 378 162 5 0 0 0 - - - 0;
#X obj 21 119 route accelerometer gyro group1;
#X floatatom 580 263 5 0 0 0 - - - 0;
#X obj 578 237 route masterFader;
#X text 730 243 Gain for the master fader;
#X obj 704 481 outlet;
#X connect 0 0 1 0;
#X connect 1 0 37 0;
#X connect 3 0 0 0;
#X connect 4 0 5 0;
#X connect 4 1 6 0;
#X connect 4 2 7 0;
#X connect 13 0 36 0;
#X connect 14 0 15 0;
#X connect 15 0 24 0;
#X connect 16 0 14 0;
#X connect 17 0 16 0;
#X connect 17 1 19 0;
#X connect 17 2 21 0;
#X connect 18 0 25 0;
#X connect 19 0 22 0;
#X connect 20 0 26 0;
#X connect 21 0 23 0;
#X connect 22 0 18 0;
#X connect 23 0 20 0;
#X connect 27 0 28 0;
#X connect 28 0 29 0;
#X connect 36 0 34 0;
#X connect 37 0 17 0;
#X connect 37 1 4 0;
#X connect 37 2 13 0;
#X connect 37 3 27 0;
#X connect 37 3 39 0;
#X connect 38 0 41 0;
#X connect 39 0 38 0;
#X restore 445 377 pd oscRouting;
#X obj 562 885 declare -lib cyclone;
#X floatatom 726 529 5 0 0 0 - - - 0;
#X obj 855 878 dac~;
#X obj 847 831 *~;
#X obj 878 833 *~;
#X text 778 526 Master gain control;
#X obj 235 377 hradio 19 1 0 8 empty empty empty 0 -10 0 12 #fcfcfc #000000 #000000 0;
#X text 76 551 todo - make pd mapping presets;
#X obj 757 203 adc~;
#X obj 757 243 send~ guitarSig;
#X obj 842 569 receive~ guitarSig;
#X text 84 109 GUI controls with embedded send/receive symbols in their properties. these can be adjusted on the fly but also can receive the composed preset messages below.;
#X text 748 350 receive the actual parameter values wherever you need them and hook them up to your synth/FX, f 22;
#X obj 307 309 loadbang;
#X msg 307 333 0;
#X msg 137 764 param_set Synth_Mix \$1;
#X obj 142 732 * 3;
#X text 18 267 0 = Reverb Dry/wet 1 = synth mix 2 = pitch shift;
#X msg 353 708 param_set Aeons_Reverb_Freeze_Active \$1;
#X obj 381 652 * 3;
#X msg 299 591 param_set Synth_Section_Active 1;
#X msg 295 618 param_set Synth_Mix 0;
#N canvas 63 88 705 588 routing 0;
#X obj 148 57 select 0 1 2;
#X msg 148 81 1 0 0;
#X msg 158 111 0 1 0;
#X msg 168 141 0 0 1;
#X obj 136 237 unpack f f f;
#X obj 148 27 inlet;
#X obj 509 28 inlet;
#X obj 130 347 spigot;
#X obj 297 355 spigot;
#X obj 206 350 spigot;
#X obj 130 411 outlet;
#X obj 206 410 outlet;
#X obj 297 415 outlet;
#X connect 0 0 1 0;
#X connect 0 1 2 0;
#X connect 0 2 3 0;
#X connect 1 0 4 0;
#X connect 2 0 4 0;
#X connect 3 0 4 0;
#X connect 4 0 7 1;
#X connect 4 1 9 1;
#X connect 4 2 8 1;
#X connect 5 0 0 0;
#X connect 6 0 8 0;
#X connect 6 0 9 0;
#X connect 6 0 7 0;
#X connect 7 0 10 0;
#X connect 8 0 12 0;
#X connect 9 0 11 0;
#X restore 327 502 pd routing;
#X obj 996 732 spigot;
#X obj 1058 732 r param-spigot;
#X obj 954 861 pack f 40;
#X obj 954 885 line~;
#X connect 1 0 24 0;
#X connect 1 1 25 0;
#X connect 1 2 2 0;
#X connect 4 0 1 0;
#X connect 6 0 5 0;
#X connect 6 0 41 0;
#X connect 6 0 42 0;
#X connect 9 0 3 0;
#X connect 12 0 44 0;
#X connect 13 0 11 0;
#X connect 14 0 11 0;
#X connect 15 0 11 0;
#X connect 16 0 14 0;
#X connect 17 0 15 0;
#X connect 20 0 43 1;
#X connect 20 3 6 0;
#X connect 20 4 17 0;
#X connect 20 5 22 0;
#X connect 20 5 46 0;
#X connect 24 0 23 0;
#X connect 25 0 23 1;
#X connect 27 0 43 0;
#X connect 29 0 30 0;
#X connect 31 0 1 0;
#X connect 31 0 1 1;
#X connect 34 0 35 0;
#X connect 35 0 27 0;
#X connect 36 0 11 0;
#X connect 37 0 36 0;
#X connect 39 0 11 0;
#X connect 40 0 39 0;
#X connect 41 0 11 0;
#X connect 42 0 11 0;
#X connect 43 0 37 0;
#X connect 43 1 40 0;
#X connect 44 0 1 0;
#X connect 45 0 44 1;
#X connect 46 0 47 0;
#X connect 47 0 25 1;
#X connect 47 0 24 1;
#X coords 0 966 1 965 85 60 0;
