#N canvas 173 359 450 300 12;
#X obj 83 42 inlet;
#X obj 83 116 spigot 1;
#X obj 83 170 t b b;
#X obj 83 224 outlet;
#X msg 158 88 0;
#X msg 208 88 1;
#X obj 273 42 inlet;
#X connect 0 0 1 0;
#X connect 1 0 2 0;
#X connect 2 0 3 0;
#X connect 2 1 4 0;
#X connect 4 0 1 1;
#X connect 5 0 1 1;
#X connect 6 0 5 0;
